#!OML:ASF H:\Dans Jumps\Project 1\Capture day 1\Session 1\subject.ASF
:FULLY-SPECIFIED
:DEGREES
330
root -0.132258 16.5933 7.99065 3.1537 0.981559 -2.65577
lowerback 7.06248 1.08218 -2.44358
upperback 2.97451 1.29164 0.817907
thorax -0.961424 0.625364 2.11339
lowerneck -9.85938 -1.16857 -0.830021
upperneck 29.3859 -2.16 2.35799
head 11.1516 -0.78393 0.739504
rclavicle -1.14301e-015 -8.94531e-015
rhumerus -7.46967 -3.06477 -83.4896
rradius 38.1221
rwrist 32.3761
rhand -21.6131 -27.064
rfingers 7.12502
rthumb 4.78232 -56.99
lclavicle -1.14301e-015 -8.94531e-015
lhumerus -19.5938 -9.04232 89.129
lradius 22.8043
lwrist 9.96908
lhand -29.8781 -10.1813
lfingers 7.12502
lthumb -3.19973 19.7745
rfemur -31.9519 -2.96582 22.6175
rtibia 49.285
rfoot -18.0129 -1.8535
rtoes 8.30535
lfemur -32.729 4.96405 -15.6071
ltibia 49.7172
lfoot -14.2345 6.85568
ltoes -7.2561
331
root -0.12877 16.7007 8.03908 3.84165 0.979402 -2.59292
lowerback 6.77043 1.10762 -2.4932
upperback 2.94609 1.32876 0.782759
thorax -0.831172 0.642344 2.10678
lowerneck -9.84745 -1.2013 -0.836239
upperneck 29.2743 -2.21801 2.41369
head 11.1084 -0.805011 0.753252
rclavicle 6.21202e-015 1.21259e-014
rhumerus -7.73518 -3.26843 -83.6378
rradius 38.6242
rwrist 31.9118
rhand -21.6258 -27.0114
rfingers 7.12502
rthumb 4.77009 -56.9377
lclavicle 6.21202e-015 1.21259e-014
lhumerus -20.186 -8.74891 89.1959
lradius 22.3869
lwrist 10.32
lhand -29.6043 -10.0466
lfingers 7.12502
lthumb -2.93536 19.913
rfemur -31.6299 -3.09569 22.5593
rtibia 47.602
rfoot -17.3703 -1.43178
rtoes 9.2299
lfemur -32.0635 4.85891 -15.702
ltibia 47.5098
lfoot -13.8511 6.76485
ltoes -6.69576
332
root -0.12449 16.8023 8.08675 4.50618 1.0039 -2.5296
lowerback 6.49818 1.12241 -2.53454
upperback 2.91274 1.35224 0.756882
thorax -0.716164 0.652746 2.10599
lowerneck -9.81911 -1.23326 -0.839315
upperneck 29.1481 -2.26834 2.44629
head 11.0558 -0.825295 0.75899
rclavicle 1.98785e-016 -5.56597e-015
rhumerus -8.04071 -3.44138 -83.7747
rradius 39.0809
rwrist 31.4721
rhand -21.6465 -26.9021
rfingers 7.12502
rthumb 4.75013 -56.8288
lclavicle 1.98785e-016 -5.56597e-015
lhumerus -20.7838 -8.40844 89.2526
lradius 21.8994
lwrist 10.5701
lhand -29.3428 -9.96625
lfingers 7.12502
lthumb -2.68274 19.9966
rfemur -31.3141 -3.25908 22.4961
rtibia 45.9616
rfoot -16.7285 -1.00746
rtoes 10.0781
lfemur -31.4027 4.77192 -15.824
ltibia 45.3478
lfoot -13.4371 6.69895
ltoes -6.23561
333
root -0.119562 16.8983 8.13376 5.14914 1.0614 -2.4653
lowerback 6.23918 1.12296 -2.56898
upperback 2.87491 1.35725 0.741221
thorax -0.612074 0.654099 2.11305
lowerneck -9.79024 -1.26501 -0.845576
upperneck 29.0273 -2.31319 2.4632
head 11.0051 -0.845294 0.760298
rclavicle 4.22417e-015 1.07344e-014
rhumerus -8.37074 -3.55769 -83.899
rradius 39.4762
rwrist 31.0929
rhand -21.66 -26.8057
rfingers 7.12502
rthumb 4.73709 -56.7327
lclavicle 4.22417e-015 1.07344e-014
lhumerus -21.3879 -8.04048 89.2986
lradius 21.3424
lwrist 10.6095
lhand -29.1221 -9.96594
lfingers 7.12502
lthumb -2.46967 19.9995
rfemur -30.9983 -3.44289 22.4243
rtibia 44.3615
rfoot -16.0959 -0.587871
rtoes 10.8315
lfemur -30.7767 4.70459 -15.9732
ltibia 43.2639
lfoot -12.9677 6.64036
ltoes -5.84822
334
root -0.114924 16.9888 8.17936 5.77377 1.14463 -2.42193
lowerback 5.98876 1.11182 -2.58446
upperback 2.83874 1.34792 0.742951
thorax -0.51015 0.648341 2.12824
lowerneck -9.77516 -1.2925 -0.858618
upperneck 28.9133 -2.34758 2.4694
head 10.9596 -0.862381 0.760156
rclavicle -8.39865e-015 4.77083e-015
rhumerus -8.70387 -3.61351 -84.0139
rradius 39.804
rwrist 30.7957
rhand -21.6852 -26.7113
rfingers 7.12502
rthumb 4.71273 -56.6389
lclavicle -8.39865e-015 4.77083e-015
lhumerus -21.9878 -7.65729 89.3324
lradius 20.7346
lwrist 10.385
lhand -28.9302 -9.96429
lfingers 7.12502
lthumb -2.28429 20.0032
rfemur -30.6856 -3.60722 22.3707
rtibia 42.7988
rfoot -15.4729 -0.210864
rtoes 11.4402
lfemur -30.2201 4.66489 -16.1155
ltibia 41.2871
lfoot -12.4361 6.55721
ltoes -5.43055
335
root -0.110734 17.0745 8.22427 6.37368 1.26479 -2.39163
lowerback 5.73927 1.08555 -2.58545
upperback 2.81119 1.31949 0.757398
thorax -0.398679 0.632854 2.14961
lowerneck -9.78291 -1.31577 -0.874907
upperneck 28.8099 -2.37334 2.46783
head 10.9226 -0.876543 0.758753
rclavicle -1.43622e-014 -5.96354e-016
rhumerus -9.02156 -3.62475 -84.1299
rradius 40.0411
rwrist 30.6066
rhand -21.7065 -26.6493
rfingers 7.12502
rthumb 4.69215 -56.5774
lclavicle -1.43622e-014 -5.96354e-016
lhumerus -22.573 -7.27789 89.3513
lradius 20.0841
lwrist 9.88372
lhand -28.7711 -9.91964
lfingers 7.12502
lthumb -2.13062 20.0495
rfemur -30.3557 -3.74939 22.3257
rtibia 41.2671
rfoot -14.8736 0.107654
rtoes 11.9185
lfemur -29.7307 4.63258 -16.249
ltibia 39.432
lfoot -11.8626 6.42403
ltoes -4.91244
336
root -0.107487 17.155 8.26842 6.94184 1.41895 -2.36636
lowerback 5.49729 1.04563 -2.5843
upperback 2.79577 1.27297 0.78191
thorax -0.277929 0.608016 2.18103
lowerneck -9.80843 -1.33729 -0.89409
upperneck 28.7104 -2.3953 2.46323
head 10.8905 -0.88948 0.757139
rclavicle -4.37326e-015 -9.93923e-016
rhumerus -9.32108 -3.59065 -84.2517
rradius 40.1964
rwrist 30.5106
rhand -21.7376 -26.6095
rfingers 7.12502
rthumb 4.66218 -56.5382
lclavicle -4.37326e-015 -9.93923e-016
lhumerus -23.148 -6.90794 89.3538
lradius 19.4181
lwrist 9.13992
lhand -28.6166 -9.77588
lfingers 7.12502
lthumb -1.98144 20.1947
rfemur -29.9982 -3.85201 22.2801
rtibia 39.7646
rfoot -14.305 0.352711
rtoes 12.3014
lfemur -29.2976 4.59192 -16.3688
ltibia 37.7057
lfoot -11.2808 6.23612
ltoes -4.27171
337
root -0.105064 17.2306 8.31285 7.46995 1.60957 -2.34285
lowerback 5.25969 0.991758 -2.58137
upperback 2.79286 1.20797 0.815767
thorax -0.145716 0.573585 2.22185
lowerneck -9.84174 -1.35436 -0.907836
upperneck 28.615 -2.40807 2.44406
head 10.8612 -0.899266 0.750413
rclavicle 2.31087e-014 -3.97569e-016
rhumerus -9.60483 -3.52855 -84.3805
rradius 40.2608
rwrist 30.5067
rhand -21.7345 -26.6195
rfingers 7.12502
rthumb 4.66511 -56.5482
lclavicle 2.31087e-014 -3.97569e-016
lhumerus -23.7171 -6.53293 89.3391
lradius 18.7492
lwrist 8.21291
lhand -28.4422 -9.56649
lfingers 7.12502
lthumb -1.81297 20.4056
rfemur -29.6007 -3.93012 22.234
rtibia 38.2906
rfoot -13.7746 0.515827
rtoes 12.5931
lfemur -28.8934 4.52353 -16.4674
ltibia 36.1001
lfoot -10.731 5.99576
ltoes -3.52116
338
root -0.10349 17.3003 8.35753 7.95064 1.82397 -2.32003
lowerback 5.03051 0.930095 -2.57849
upperback 2.80509 1.13244 0.857421
thorax -0.00199351 0.533475 2.27085
lowerneck -9.87483 -1.3711 -0.930173
upperneck 28.5205 -2.4195 2.42809
head 10.8323 -0.908961 0.746517
rclavicle -1.76421e-014 5.56597e-015
rhumerus -9.87404 -3.44844 -84.5162
rradius 40.2418
rwrist 30.5647
rhand -21.7224 -26.6482
rfingers 7.12502
rthumb 4.6768 -56.5766
lclavicle -1.76421e-014 5.56597e-015
lhumerus -24.2758 -6.14292 89.3043
lradius 18.0864
lwrist 7.16781
lhand -28.2711 -9.41538
lfingers 7.12502
lthumb -1.64777 20.558
rfemur -29.1652 -3.98317 22.1907
rtibia 36.8535
rfoot -13.2809 0.587141
rtoes 12.8606
lfemur -28.4957 4.43205 -16.5405
ltibia 34.6049
lfoot -10.2418 5.71465
ltoes -2.73397
339
root -0.102551 17.3634 8.40275 8.38395 2.04848 -2.3037
lowerback 4.81269 0.866392 -2.57014
upperback 2.82554 1.05407 0.90737
thorax 0.144165 0.491778 2.32484
lowerneck -9.90309 -1.3873 -0.958084
upperneck 28.4351 -2.42853 2.40986
head 10.8059 -0.918351 0.743149
rclavicle 1.2424e-015 -2.98177e-015
rhumerus -10.1388 -3.36064 -84.656
rradius 40.1385
rwrist 30.6772
rhand -21.6851 -26.711
rfingers 7.12502
rthumb 4.71284 -56.6386
lclavicle 1.2424e-015 -2.98177e-015
lhumerus -24.8318 -5.72662 89.2499
lradius 17.4383
lwrist 6.08458
lhand -28.1052 -9.34551
lfingers 7.12502
lthumb -1.48753 20.629
rfemur -28.6998 -4.01926 22.1599
rtibia 35.4606
rfoot -12.8283 0.581778
rtoes 13.205
lfemur -28.0929 4.33745 -16.5847
ltibia 33.207
lfoot -9.82612 5.40284
ltoes -2.00967
340
root -0.102137 17.4192 8.44839 8.7684 2.26835 -2.29302
lowerback 4.60925 0.808278 -2.55841
upperback 2.85327 0.982757 0.96418
thorax 0.289486 0.453486 2.38305
lowerneck -9.92325 -1.40543 -0.992749
upperneck 28.3594 -2.43922 2.39219
head 10.7818 -0.929071 0.741069
rclavicle -1.36167e-014 -9.34288e-015
rhumerus -10.4073 -3.27845 -84.7926
rradius 39.961
rwrist 30.8313
rhand -21.6718 -26.7281
rfingers 7.12502
rthumb 4.72564 -56.6554
lclavicle -1.36167e-014 -9.34288e-015
lhumerus -25.3886 -5.27411 89.1752
lradius 16.8145
lwrist 5.00932
lhand -27.9652 -9.36335
lfingers 7.12502
lthumb -1.35235 20.6121
rfemur -28.2165 -4.04313 22.146
rtibia 34.1243
rfoot -12.4099 0.499295
rtoes 13.5502
lfemur -27.6812 4.26728 -16.6083
ltibia 31.9011
lfoot -9.48086 5.06562
ltoes -1.44681
341
root -0.101389 17.4677 8.49498 9.10138 2.47661 -2.29336
lowerback 4.42281 0.75813 -2.52941
upperback 2.88717 0.922037 1.02538
thorax 0.431387 0.420608 2.43503
lowerneck -9.96217 -1.42376 -1.02839
upperneck 28.3175 -2.45033 2.37299
head 10.7741 -0.939769 0.738594
rclavicle -4.67144e-015 6.95746e-015
rhumerus -10.6719 -3.21399 -84.9267
rradius 39.6952
rwrist 31.0459
rhand -21.6575 -26.7269
rfingers 7.12502
rthumb 4.73946 -56.6539
lclavicle -4.67144e-015 6.95746e-015
lhumerus -25.9326 -4.78794 89.0758
lradius 16.2033
lwrist 3.98651
lhand -27.8731 -9.47706
lfingers 7.12502
lthumb -1.26336 20.4989
rfemur -27.7136 -4.07756 22.1532
rtibia 32.8535
rfoot -12.0396 0.381048
rtoes 13.9403
lfemur -27.2547 4.24259 -16.6171
ltibia 30.6841
lfoot -9.19856 4.70795
ltoes -1.10241
